G75*
%MOIN*%
%OFA0B0*%
%FSLAX25Y25*%
%IPPOS*%
%LPD*%
%AMOC8*
5,1,8,0,0,1.08239X$1,22.5*
%
%ADD10C,0.00000*%
%ADD11C,0.06600*%
%ADD12C,0.06000*%
%ADD13OC8,0.05200*%
D10*
X0001000Y0001000D02*
X0001000Y0235961D01*
X0314701Y0235961D01*
X0314701Y0001000D01*
X0001000Y0001000D01*
D11*
X0221000Y0161000D03*
X0221000Y0201000D03*
D12*
X0251000Y0201000D01*
X0251000Y0116000D01*
X0301000Y0116000D01*
X0298000Y0116000D02*
X0304000Y0116000D01*
X0304000Y0106000D02*
X0298000Y0106000D01*
X0298000Y0096000D02*
X0304000Y0096000D01*
X0301000Y0096000D02*
X0216000Y0096000D01*
X0216000Y0076000D01*
X0106000Y0076000D01*
X0106000Y0206000D01*
X0056000Y0206000D01*
X0053000Y0206000D02*
X0059000Y0206000D01*
X0059000Y0196000D02*
X0053000Y0196000D01*
X0056000Y0196000D02*
X0016000Y0196000D01*
X0016000Y0146000D01*
X0016000Y0096000D01*
X0016000Y0026000D01*
X0056000Y0026000D01*
X0053000Y0026000D02*
X0059000Y0026000D01*
X0059000Y0036000D02*
X0053000Y0036000D01*
X0056000Y0036000D02*
X0276000Y0036000D01*
X0276000Y0066000D01*
X0301000Y0066000D01*
X0298000Y0066000D02*
X0304000Y0066000D01*
X0304000Y0056000D02*
X0298000Y0056000D01*
X0298000Y0046000D02*
X0304000Y0046000D01*
X0304000Y0076000D02*
X0298000Y0076000D01*
X0301000Y0076000D02*
X0261000Y0076000D01*
X0261000Y0051000D01*
X0076000Y0051000D01*
X0076000Y0086000D01*
X0056000Y0086000D01*
X0053000Y0086000D02*
X0059000Y0086000D01*
X0059000Y0076000D02*
X0053000Y0076000D01*
X0053000Y0096000D02*
X0059000Y0096000D01*
X0056000Y0096000D02*
X0016000Y0096000D01*
X0053000Y0126000D02*
X0059000Y0126000D01*
X0059000Y0136000D02*
X0053000Y0136000D01*
X0056000Y0136000D02*
X0091000Y0136000D01*
X0091000Y0061000D01*
X0241000Y0061000D01*
X0241000Y0086000D01*
X0301000Y0086000D01*
X0298000Y0086000D02*
X0304000Y0086000D01*
X0304000Y0126000D02*
X0298000Y0126000D01*
X0298000Y0136000D02*
X0304000Y0136000D01*
X0304000Y0146000D02*
X0298000Y0146000D01*
X0301000Y0146000D02*
X0271000Y0146000D01*
X0271000Y0226000D01*
X0016000Y0226000D01*
X0016000Y0196000D01*
X0053000Y0186000D02*
X0059000Y0186000D01*
X0059000Y0146000D02*
X0053000Y0146000D01*
X0056000Y0146000D02*
X0016000Y0146000D01*
X0136000Y0158000D02*
X0136000Y0164000D01*
X0146000Y0164000D02*
X0146000Y0158000D01*
X0156000Y0158000D02*
X0156000Y0164000D01*
X0149000Y0181000D02*
X0143000Y0181000D01*
X0143000Y0191000D02*
X0149000Y0191000D01*
X0298000Y0186000D02*
X0304000Y0186000D01*
X0304000Y0176000D02*
X0298000Y0176000D01*
X0298000Y0166000D02*
X0304000Y0166000D01*
X0304000Y0156000D02*
X0298000Y0156000D01*
X0059000Y0046000D02*
X0053000Y0046000D01*
D13*
X0171000Y0096000D03*
X0171000Y0146000D03*
M02*
