%
M48
M72
T01C0.03200
T02C0.04000
T03C0.04400
%
T01
X171000Y96000
X171000Y146000
T02
X56000Y26000
X56000Y36000
X56000Y46000
X56000Y76000
X56000Y86000
X56000Y96000
X56000Y126000
X56000Y136000
X56000Y146000
X56000Y186000
X56000Y196000
X56000Y206000
X136000Y161000
X146000Y161000
X156000Y161000
X146000Y181000
X146000Y191000
X301000Y186000
X301000Y176000
X301000Y166000
X301000Y156000
X301000Y146000
X301000Y136000
X301000Y126000
X301000Y116000
X301000Y106000
X301000Y96000
X301000Y86000
X301000Y76000
X301000Y66000
X301000Y56000
X301000Y46000
T03
X221000Y161000
X221000Y201000
M30
